<svg xmlns="http://www.w3.org/2000/svg" xmlns:xlink="http://www.w3.org/1999/xlink" version="1.1" width="1000" height="1000" viewBox="0 0 1000 1000" xml:space="preserve">
<desc>Created with Fabric.js 3.5.0</desc>
<defs>
</defs>
<rect x="0" y="0" width="100%" height="100%" fill="rgba(255,255,255,0)"/>
<g transform="matrix(1.25 0 0 1.25 500 500)" id="428884">
<g style="" vector-effect="non-scaling-stroke">
		<g transform="matrix(33.3333 0 0 33.3333 -0.0003 -0.0003)" id="Layer_1">
<path style="stroke: none; stroke-width: 1; stroke-dasharray: none; stroke-linecap: butt; stroke-dashoffset: 0; stroke-linejoin: miter; stroke-miterlimit: 4; is-custom-font: none; font-file-url: none; fill: rgb(0,158,255); fill-rule: nonzero; opacity: 1;" transform=" translate(-12, -12)" d="M 12 11.5 c 1.4 0 2.5 -1.1 2.5 -2.5 S 13.4 6.5 12 6.5 S 9.5 7.6 9.5 9 S 10.6 11.5 12 11.5 M 12 2 c 3.9 0 7 3.1 7 7 c 0 5.2 -7 13 -7 13 S 5 14.2 5 9 C 5 5.1 8.1 2 12 2 M 3 9 c 0 4.5 5.1 10.7 6 11.8 L 8 22 c 0 0 -7 -7.8 -7 -13 c 0 -3.2 2.1 -5.8 5 -6.7 C 4.2 3.9 3 6.3 3 9 z M 18 2.3 c 2.9 0.9 5 3.5 5 6.7 c 0 5.2 -7 13 -7 13 l -1 -1.2 c 0.9 -1.1 6 -7.3 6 -11.8 C 21 6.3 19.8 3.9 18 2.3 z" stroke-linecap="round"/>
</g>
		<g transform="matrix(33.3333 0 0 33.3333 -0.0005 -0.0005)" id="Layer_1">
<rect style="stroke: none; stroke-width: 1; stroke-dasharray: none; stroke-linecap: butt; stroke-dashoffset: 0; stroke-linejoin: miter; stroke-miterlimit: 4; is-custom-font: none; font-file-url: none; fill: none; fill-rule: nonzero; opacity: 1;" x="-12" y="-12" rx="0" ry="0" width="24" height="24"/>
</g>
</g>
</g>
</svg>