<svg xmlns="http://www.w3.org/2000/svg" xmlns:xlink="http://www.w3.org/1999/xlink" version="1.1" width="1000" height="1000" viewBox="0 0 1000 1000" xml:space="preserve">
<desc>Created with Fabric.js 3.5.0</desc>
<defs>
</defs>
<rect x="0" y="0" width="100%" height="100%" fill="rgba(255,255,255,0)"/>
<g transform="matrix(83.2851 0 0 83.2851 500 499.1566)" id="460017">
<path style="stroke: none; stroke-width: 1; stroke-dasharray: none; stroke-linecap: butt; stroke-dashoffset: 0; stroke-linejoin: miter; stroke-miterlimit: 4; is-custom-font: none; font-file-url: none; fill: rgb(0,158,255); fill-rule: nonzero; opacity: 1;" vector-effect="non-scaling-stroke" transform=" translate(-7.5008, -7.0127)" d="M 5.3608 1.67 l -0.01 4.02 a 4.4523 4.4523 0 0 0 -1.1 -0.11 c -0.37 0.1 -0.74 0.63 -1.1 0.76 A 4.2019 4.2019 0 0 1 5.3608 1.67 Z m 2.41 -0.64 l 2.03 3.45 a 3.1832 3.1832 0 0 1 0.84 -0.61 c 0.36 -0.1 0.94 0.17 1.34 0.11 A 4.2018 4.2018 0 0 0 7.7708 1.03 Z M 1.0008 13 h 13 c -0.66 -0.66 -2.64 -1.11 -4.34 -1.33 l -1.87 -7 c 0.52 -0.05 1.15 0.03 1.53 0 l -2.11 -3.6 h -0.01 a 6.1743 6.1743 0 0 0 -0.7 0.14 a 4.3792 4.3792 0 0 0 -0.64 0.22 l -0.01 4.15 c 0.35 -0.17 0.84 -0.54 1.3 -0.74 l 1.8 6.74 c -0.58 -0.05 -1.09 -0.08 -1.45 -0.08 C 6.0308 11.5 2.0008 12 1.0008 13 Z" stroke-linecap="round"/>
</g>
</svg>