<svg xmlns="http://www.w3.org/2000/svg" xmlns:xlink="http://www.w3.org/1999/xlink" version="1.1" width="1000" height="1000" viewBox="0 0 1000 1000" xml:space="preserve">
<desc>Created with Fabric.js 3.5.0</desc>
<defs>
</defs>
<rect x="0" y="0" width="100%" height="100%" fill="rgba(255,255,255,0)"/>
<g transform="matrix(1.5915 0 0 1.5915 825.1041 565.6679)" id="223297">
<path style="stroke: none; stroke-width: 0; stroke-dasharray: none; stroke-linecap: butt; stroke-dashoffset: 0; stroke-linejoin: miter; stroke-miterlimit: 4; is-custom-font: none; font-file-url: none; fill: rgb(255,255,255); fill-rule: nonzero; opacity: 1;" vector-effect="non-scaling-stroke" transform=" translate(-67.5, -67.5)" d="M 132.5 67.5 C 132.5 103.399 103.399 132.5 67.5 132.5 C 31.6015 132.5 2.5 103.399 2.5 67.5 C 2.5 31.6015 31.6015 2.5 67.5 2.5 C 103.399 2.5 132.5 31.6015 132.5 67.5 Z" stroke-linecap="round"/>
</g>
<g transform="matrix(1.4511 0 0 1.4511 173.361 568.171)" id="253101">
<path style="stroke: none; stroke-width: 0; stroke-dasharray: none; stroke-linecap: butt; stroke-dashoffset: 0; stroke-linejoin: miter; stroke-miterlimit: 4; is-custom-font: none; font-file-url: none; fill: rgb(255,255,255); fill-rule: nonzero; opacity: 1;" vector-effect="non-scaling-stroke" transform=" translate(-67.5, -67.5)" d="M 132.5 67.5 C 132.5 103.399 103.399 132.5 67.5 132.5 C 31.6015 132.5 2.5 103.399 2.5 67.5 C 2.5 31.6015 31.6015 2.5 67.5 2.5 C 103.399 2.5 132.5 31.6015 132.5 67.5 Z" stroke-linecap="round"/>
</g>
<g transform="matrix(5.5845 0 0 3.5392 488.696 309.0878)" id="512647">
<path style="stroke: none; stroke-width: 0; stroke-dasharray: none; stroke-linecap: butt; stroke-dashoffset: 0; stroke-linejoin: miter; stroke-miterlimit: 4; is-custom-font: none; font-file-url: none; fill: rgb(255,255,255); fill-rule: nonzero; opacity: 1;" vector-effect="non-scaling-stroke" transform=" translate(-77.866, -45.2497)" d="M 33.215 2.42563 C 33.6712 1.12706 34.8878 0.256358 36.2565 0.249023 L 33.215 2.42563 Z M 33.215 2.42563 L 0.231964 88.1934 L 33.215 2.42563 Z M 154.974 88.2083 L 155.104 88.5466 L 155.325 88.8339 C 155.609 89.2026 155.538 89.7329 155.179 90.0127 C 155.036 90.1246 154.861 90.1834 154.684 90.1824 L 152.171 90.1695 V 90.2503 H 3.28613 C 3.04413 90.2467 2.81352 90.1217 2.67547 89.9061 L 2.65557 89.875 L 2.63476 89.8445 C 2.49005 89.6326 2.45901 89.3587 2.55512 89.1169 L 2.56032 89.1039 L 2.56537 89.0907 L 35.5484 3.32297 L 35.5615 3.28882 L 35.5737 3.25429 C 35.6819 2.94609 35.9631 2.75246 36.2655 2.74902 L 121.485 2.74903 L 121.487 2.74902 C 121.817 2.74872 122.125 2.95585 122.248 3.28824 L 122.254 3.30649 L 122.261 3.32464 L 154.974 88.2083 Z" stroke-linecap="round"/>
</g>
<g transform="matrix(49.8232 0 0 44.6917 500.4995 500.0004)" id="168522">
<path style="stroke: none; stroke-width: 1; stroke-dasharray: none; stroke-linecap: butt; stroke-dashoffset: 0; stroke-linejoin: miter; stroke-miterlimit: 4; is-custom-font: none; font-file-url: none; fill: rgb(0,158,255); fill-rule: evenodd; opacity: 1;" vector-effect="non-scaling-stroke" transform=" translate(-12.0005, -13)" d="M 2 14.803 v 6.447 c 0 0.414 0.336 0.75 0.75 0.75 h 1.614 a 0.75 0.75 0 0 0 0.74 -0.627 L 5.5 19 h 13 l 0.395 2.373 a 0.75 0.75 0 0 0 0.74 0.627 h 1.615 a 0.75 0.75 0 0 0 0.75 -0.75 v -6.447 a 5.954 5.954 0 0 0 -1 -3.303 l -0.78 -1.17 a 1.994 1.994 0 0 1 -0.178 -0.33 h 0.994 a 0.75 0.75 0 0 0 0.671 -0.415 l 0.25 -0.5 A 0.75 0.75 0 0 0 21.287 8 H 19.6 l -0.31 -1.546 a 2.5 2.5 0 0 0 -1.885 -1.944 C 15.943 4.17 14.141 4 12 4 c -2.142 0 -3.943 0.17 -5.405 0.51 a 2.5 2.5 0 0 0 -1.886 1.944 L 4.399 8 H 2.714 a 0.75 0.75 0 0 0 -0.67 1.085 l 0.25 0.5 a 0.75 0.75 0 0 0 0.67 0.415 h 0.995 a 1.999 1.999 0 0 1 -0.178 0.33 L 3 11.5 c -0.652 0.978 -1 2.127 -1 3.303 z m 15.961 -4.799 a 4 4 0 0 0 0.34 0.997 H 5.699 c 0.157 -0.315 0.271 -0.65 0.34 -0.997 l 0.632 -3.157 a 0.5 0.5 0 0 1 0.377 -0.39 C 8.346 6.157 10 6 12 6 c 2 0 3.654 0.156 4.952 0.458 a 0.5 0.5 0 0 1 0.378 0.389 l 0.631 3.157 z M 5.5 16 a 1.5 1.5 0 1 0 0 -3 a 1.5 1.5 0 0 0 0 3 z M 20 14.5 a 1.5 1.5 0 1 1 -3 0 a 1.5 1.5 0 0 1 3 0 z" stroke-linecap="round"/>
</g>
</svg>