<svg xmlns="http://www.w3.org/2000/svg" xmlns:xlink="http://www.w3.org/1999/xlink" version="1.1" width="1000" height="1000" viewBox="0 0 1000 1000" xml:space="preserve">
<desc>Created with Fabric.js 3.5.0</desc>
<defs>
</defs>
<rect x="0" y="0" width="100%" height="100%" fill="rgba(255,255,255,0)"/>
<g transform="matrix(1.5915 0 0 1.5915 825.1041 565.6679)" id="223297">
<path style="stroke: none; stroke-width: 0; stroke-dasharray: none; stroke-linecap: butt; stroke-dashoffset: 0; stroke-linejoin: miter; stroke-miterlimit: 4; is-custom-font: none; font-file-url: none; fill: rgb(255,255,255); fill-rule: nonzero; opacity: 1;" vector-effect="non-scaling-stroke" transform=" translate(-67.5, -67.5)" d="M 132.5 67.5 C 132.5 103.399 103.399 132.5 67.5 132.5 C 31.6015 132.5 2.5 103.399 2.5 67.5 C 2.5 31.6015 31.6015 2.5 67.5 2.5 C 103.399 2.5 132.5 31.6015 132.5 67.5 Z" stroke-linecap="round"/>
</g>
<g transform="matrix(1.4511 0 0 1.4511 173.361 568.171)" id="253101">
<path style="stroke: none; stroke-width: 0; stroke-dasharray: none; stroke-linecap: butt; stroke-dashoffset: 0; stroke-linejoin: miter; stroke-miterlimit: 4; is-custom-font: none; font-file-url: none; fill: rgb(255,255,255); fill-rule: nonzero; opacity: 1;" vector-effect="non-scaling-stroke" transform=" translate(-67.5, -67.5)" d="M 132.5 67.5 C 132.5 103.399 103.399 132.5 67.5 132.5 C 31.6015 132.5 2.5 103.399 2.5 67.5 C 2.5 31.6015 31.6015 2.5 67.5 2.5 C 103.399 2.5 132.5 31.6015 132.5 67.5 Z" stroke-linecap="round"/>
</g>
<g transform="matrix(5.5845 0 0 3.5392 488.696 309.0878)" id="512647">
<path style="stroke: none; stroke-width: 0; stroke-dasharray: none; stroke-linecap: butt; stroke-dashoffset: 0; stroke-linejoin: miter; stroke-miterlimit: 4; is-custom-font: none; font-file-url: none; fill: rgb(255,255,255); fill-rule: nonzero; opacity: 1;" vector-effect="non-scaling-stroke" transform=" translate(-77.866, -45.2497)" d="M 33.215 2.42563 C 33.6712 1.12706 34.8878 0.256358 36.2565 0.249023 L 33.215 2.42563 Z M 33.215 2.42563 L 0.231964 88.1934 L 33.215 2.42563 Z M 154.974 88.2083 L 155.104 88.5466 L 155.325 88.8339 C 155.609 89.2026 155.538 89.7329 155.179 90.0127 C 155.036 90.1246 154.861 90.1834 154.684 90.1824 L 152.171 90.1695 V 90.2503 H 3.28613 C 3.04413 90.2467 2.81352 90.1217 2.67547 89.9061 L 2.65557 89.875 L 2.63476 89.8445 C 2.49005 89.6326 2.45901 89.3587 2.55512 89.1169 L 2.56032 89.1039 L 2.56537 89.0907 L 35.5484 3.32297 L 35.5615 3.28882 L 35.5737 3.25429 C 35.6819 2.94609 35.9631 2.75246 36.2655 2.74902 L 121.485 2.74903 L 121.487 2.74902 C 121.817 2.74872 122.125 2.95585 122.248 3.28824 L 122.254 3.30649 L 122.261 3.32464 L 154.974 88.2083 Z" stroke-linecap="round"/>
</g>
<g transform="matrix(6.866 0 0 6.866 493.3271 493.3271)" id="329355">
<path style="stroke: none; stroke-width: 0; stroke-dasharray: none; stroke-linecap: butt; stroke-dashoffset: 0; stroke-linejoin: miter; stroke-miterlimit: 4; is-custom-font: none; font-file-url: none; fill: rgb(255,255,255); fill-rule: nonzero; opacity: 1;" vector-effect="non-scaling-stroke" transform=" translate(-67.5, -67.5)" d="M 132.5 67.5 C 132.5 103.399 103.399 132.5 67.5 132.5 C 31.6015 132.5 2.5 103.399 2.5 67.5 C 2.5 31.6015 31.6015 2.5 67.5 2.5 C 103.399 2.5 132.5 31.6015 132.5 67.5 Z" stroke-linecap="round"/>
</g>
<g transform="matrix(15.9469 0 0 15.9196 500.4991 500.5001)" id="809619">
<path style="stroke: none; stroke-width: 1; stroke-dasharray: none; stroke-linecap: butt; stroke-dashoffset: 0; stroke-linejoin: miter; stroke-miterlimit: 4; is-custom-font: none; font-file-url: none; fill: rgb(0,158,255); fill-rule: nonzero; opacity: 1;" vector-effect="non-scaling-stroke" transform=" translate(-31.966, -32.1202)" d="M 56.411 0.719 S 7.623 0.704 7.637 0.719 C 3.14 0.719 0.612 3.044 0.612 7.793 v 48.966 c 0 4.443 2.273 6.769 6.766 6.769 h 49.173 c 4.493 0 6.769 -2.21 6.769 -6.769 V 7.793 c 0.001 -4.634 -2.275 -7.074 -6.909 -7.074 z M 30.749 23.374 c 0 1.536 -1.399 3.181 -3.215 3.181 V 52.49 c 0 3.682 -5.018 3.682 -5.018 0 V 26.555 c -1.767 0 -3.306 -1.361 -3.306 -3.4 V 8.882 c 0 -1.242 1.795 -1.29 1.795 0.049 v 10.55 h 1.503 V 8.833 c 0 -1.141 1.729 -1.214 1.729 0.049 v 10.599 h 1.553 V 8.848 c 0 -1.193 1.678 -1.241 1.678 0.047 v 10.586 h 1.528 V 8.848 c 0 -1.18 1.753 -1.227 1.753 0.047 v 14.479 z m 13.386 29.104 c 0 3.601 -5.028 3.547 -5.028 0 V 36.496 H 36.43 V 12.199 c 0 -5.656 7.706 -5.656 7.706 0 v 40.279 z" stroke-linecap="round"/>
</g>
</svg>