<svg xmlns="http://www.w3.org/2000/svg" xmlns:xlink="http://www.w3.org/1999/xlink" version="1.1" width="1000" height="1000" viewBox="0 0 1000 1000" xml:space="preserve">
<desc>Created with Fabric.js 3.5.0</desc>
<defs>
</defs>
<rect x="0" y="0" width="100%" height="100%" fill="rgba(255,255,255,0)"/>
<g transform="matrix(6.9226 0 0 4.0747 499.8097 516.8942)" id="812401">
<path style="stroke: none; stroke-width: 0; stroke-dasharray: none; stroke-linecap: butt; stroke-dashoffset: 0; stroke-linejoin: miter; stroke-miterlimit: 4; is-custom-font: none; font-file-url: none; fill: rgb(255,255,255); fill-rule: nonzero; opacity: 1;" vector-effect="non-scaling-stroke" transform=" translate(-46.5001, -78.5)" d="M 2.6167 78.5 C 2.6167 57.2341 7.7391 38.064 15.8764 24.2946 C 24.0482 10.4665 34.9664 2.5 46.5001 2.5 C 58.0338 2.5 68.952 10.4665 77.1238 24.2946 C 85.2611 38.064 90.3835 57.2341 90.3835 78.5 C 90.3835 99.7659 85.2611 118.936 77.1238 132.705 C 68.952 146.533 58.0338 154.5 46.5001 154.5 C 34.9664 154.5 24.0482 146.533 15.8764 132.705 C 7.7391 118.936 2.6167 99.7659 2.6167 78.5 Z" stroke-linecap="round"/>
</g>
<g transform="matrix(1.25 0 0 1.25 500 500)" id="297876">
<g style="" vector-effect="non-scaling-stroke">
		<g transform="matrix(3.532 0 0 3.532 -120.8647 -46.4086)" id="Capa_1">
<path style="stroke: none; stroke-width: 1; stroke-dasharray: none; stroke-linecap: butt; stroke-dashoffset: 0; stroke-linejoin: miter; stroke-miterlimit: 4; is-custom-font: none; font-file-url: none; fill: rgb(0,158,255); fill-rule: nonzero; opacity: 1;" transform=" translate(-79.0295, -100.111)" d="M 78.892 91.198 h -3.888 v 17.826 h 2.965 c 2.642 0 5.086 -0.706 5.086 -5.824 v -6.363 C 83.055 91.634 80.998 91.198 78.892 91.198 z" stroke-linecap="round"/>
</g>
		<g transform="matrix(3.532 0 0 3.532 149.617 -42.8271)" id="Capa_1">
<path style="stroke: none; stroke-width: 1; stroke-dasharray: none; stroke-linecap: butt; stroke-dashoffset: 0; stroke-linejoin: miter; stroke-miterlimit: 4; is-custom-font: none; font-file-url: none; fill: rgb(0,158,255); fill-rule: nonzero; opacity: 1;" transform=" translate(-155.61, -101.125)" d="M 155.518 91.198 h -3.795 v 19.854 h 3.795 c 2.098 0 3.979 -0.389 3.979 -5.086 v -9.682 C 159.498 91.587 157.614 91.198 155.518 91.198 z" stroke-linecap="round"/>
</g>
		<g transform="matrix(3.532 0 0 3.532 0.0024 0.0008)" id="Capa_1">
<path style="stroke: none; stroke-width: 1; stroke-dasharray: none; stroke-linecap: butt; stroke-dashoffset: 0; stroke-linejoin: miter; stroke-miterlimit: 4; is-custom-font: none; font-file-url: none; fill: rgb(0,158,255); fill-rule: nonzero; opacity: 1;" transform=" translate(-113.25, -113.2505)" d="M 202 181.669 h -8.902 c 0.147 -1.293 0.231 -2.604 0.231 -3.937 V 54.243 c 0 -13.332 -7.608 -24.877 -18.716 -30.557 C 169.006 9.801 155.411 0 139.518 0 H 86.984 C 71.09 0 57.495 9.801 51.887 23.686 c -11.106 5.68 -18.715 17.225 -18.715 30.557 v 123.489 c 0 1.332 0.084 2.644 0.231 3.937 H 24.5 c -5.522 0 -10 4.478 -10 10 v 24.832 c 0 5.522 4.478 10 10 10 H 202 c 5.523 0 10 -4.478 10 -10 v -24.832 C 212 186.146 207.524 181.669 202 181.669 z M 94.528 145.16 c -0.76 0.867 -1.856 1.363 -3.009 1.363 h -4.142 c -1.976 0 -3.655 -1.441 -3.954 -3.396 c -0.194 -1.272 -0.277 -2.927 -0.277 -5.534 v -10.145 c 0 -6.648 -2.786 -7.205 -5.64 -7.205 h -2.504 v 22.279 c 0 2.209 -1.791 4 -4 4 H 66.86 c -2.209 0 -4 -1.791 -4 -4 V 83.978 c 0 -2.209 1.791 -4 4 -4 h 12.307 c 10.937 0 16.03 5.035 16.03 15.846 v 5.072 c 0 6.264 -1.815 10.556 -5.538 13.054 c 3.831 2.397 5.63 6.835 5.63 13.778 v 9.959 c 0 1.75 0.033 3.082 0.196 4.312 C 95.638 143.143 95.288 144.294 94.528 145.16 z M 123.139 142.523 c 0 2.209 -1.791 4 -4 4 h -4.144 c -2.209 0 -4 -1.791 -4 -4 V 83.978 c 0 -2.209 1.791 -4 4 -4 h 4.144 c 2.209 0 4 1.791 4 4 V 142.523 z M 171.641 105.321 c 0 14.011 -8.769 16.951 -16.123 16.951 h -3.795 v 20.252 c 0 2.209 -1.791 4 -4 4 h -4.143 c -2.209 0 -4 -1.791 -4 -4 V 83.978 c 0 -2.209 1.791 -4 4 -4 h 11.938 c 7.354 0 16.123 2.941 16.123 16.953 V 105.321 z" stroke-linecap="round"/>
</g>
</g>
</g>
</svg>