<svg xmlns="http://www.w3.org/2000/svg" xmlns:xlink="http://www.w3.org/1999/xlink" version="1.1" width="1000" height="1000" viewBox="0 0 1000 1000" xml:space="preserve">
<desc>Created with Fabric.js 3.5.0</desc>
<defs>
</defs>
<rect x="0" y="0" width="100%" height="100%" fill="#ffffff"/>
<g transform="matrix(3.125 0 0 3.125 350.2732 443.1694)" id="648194">
<path style="stroke: none; stroke-width: 0; stroke-dasharray: none; stroke-linecap: butt; stroke-dashoffset: 0; stroke-linejoin: miter; stroke-miterlimit: 4; is-custom-font: none; font-file-url: none; fill: rgb(0,158,255); fill-rule: nonzero; opacity: 1;" vector-effect="non-scaling-stroke" transform=" translate(-224, -256)" d="M 400 32 H 48 C 21.5 32 0 53.5 0 80 v 352 c 0 26.5 21.5 48 48 48 h 352 c 26.5 0 48 -21.5 48 -48 V 80 c 0 -26.5 -21.5 -48 -48 -48 z M 240 320 h -48 v 48 c 0 8.8 -7.2 16 -16 16 h -32 c -8.8 0 -16 -7.2 -16 -16 V 144 c 0 -8.8 7.2 -16 16 -16 h 96 c 52.9 0 96 43.1 96 96 s -43.1 96 -96 96 z m 0 -128 h -48 v 64 h 48 c 17.6 0 32 -14.4 32 -32 s -14.4 -32 -32 -32 z" stroke-linecap="round"/>
</g>
<g transform="matrix(13.968 0 0 13.968 682.65 906.575)" id="295062">
<path style="stroke: none; stroke-width: 0; stroke-dasharray: none; stroke-linecap: round; stroke-dashoffset: 0; stroke-linejoin: round; stroke-miterlimit: 4; is-custom-font: none; font-file-url: none; fill: none; fill-rule: nonzero; opacity: 1;" vector-effect="non-scaling-stroke" transform=" translate(-12, -12)" d="M 17 7 l 1 10 M 7 7 L 6 17 M 5 7 H 19 m 2 6 H 3" stroke-linecap="round"/>
</g>
<g transform="matrix(0.8 0 0 0.8 771.5477 674.2354)" id="999204">
<path style="stroke: none; stroke-width: 1; stroke-dasharray: none; stroke-linecap: butt; stroke-dashoffset: 0; stroke-linejoin: miter; stroke-miterlimit: 4; is-custom-font: none; font-file-url: none; fill: rgb(0,0,0); fill-rule: nonzero; opacity: 1;" vector-effect="non-scaling-stroke" transform=" translate(-501.2345, -492.2838)" d="M 432 775 h 133 v 129 H 432 V 775 z M 539 87 q -67 -10 -129 12 q -60 21 -104 67 t -62 107 q -6 19 0.5 37 t 22 29.5 T 302 351 h 13 q 20 0 35.5 -12.5 T 374 306 q 16 -45 59.5 -70.5 t 92.5 -15 t 79.5 48 T 632 353 q -1 31 -24 60 q -15 17 -56 50 q -30 25 -44 38 q -24 23 -40 46 l -2 5 q -10 16 -17 33 l -3 6 l -1 4 q -7 20 -10 33 q -3 18 -3 41 h 133 q 0 -19 5 -34 q 4 -10 14 -28 l 3 -6 q 8 -14 19 -26 l 2 -2 q 10 -12 22 -23 l 25 -23 q 37 -34 53 -53 q 27 -31 40 -65 q 16 -41 14 -93 q -7 -57 -38.5 -106.5 t -79.5 -82 T 539 87 z" stroke-linecap="round"/>
</g>
</svg>