<svg xmlns="http://www.w3.org/2000/svg" xmlns:xlink="http://www.w3.org/1999/xlink" version="1.1" width="1000" height="1000" viewBox="0 0 1000 1000" xml:space="preserve">
<desc>Created with Fabric.js 3.5.0</desc>
<defs>
</defs>
<rect x="0" y="0" width="100%" height="100%" fill="rgba(255,255,255,0)"/>
<g transform="matrix(1.9531 0 0 1.9545 500.4946 500.5009)" id="123601">
<path style="stroke: none; stroke-width: 1; stroke-dasharray: none; stroke-linecap: butt; stroke-dashoffset: 0; stroke-linejoin: miter; stroke-miterlimit: 4; is-custom-font: none; font-file-url: none; fill: rgb(0,158,255); fill-rule: nonzero; opacity: 1;" vector-effect="non-scaling-stroke" transform=" translate(-256.0008, -255.9996)" d="M 509.122 341.101 l -72.577 -107.517 h 23.999 c 13.146 0 21.126 -14.542 14.102 -25.628 l -47.203 -74.538 h 15.069 c 13.991 0 21.794 -16.275 12.994 -27.172 L 374.725 6.081 c -6.336 -7.869 -19.65 -7.869 -25.987 0 l -72.292 89.637 c 5.45 11.667 6.178 24.928 1.861 37.314 c 3.618 0.574 13.708 0.386 17.711 0.386 l -20.259 31.99 l 15.634 24.685 c 9.761 15.407 10.364 34.927 1.554 50.931 c -3.206 5.836 -7.484 10.864 -12.498 14.901 c 45.671 67.669 47.166 68.257 50.551 77.825 h -0.008 c 6.889 19.415 1.492 44.247 -19.344 58.223 v 86.461 H 200.241 V 367.139 h 83.583 c 13.348 0 21.316 -14.956 13.836 -26.036 l -72.576 -107.518 h 23.999 c 13.146 0 21.126 -14.542 14.102 -25.628 l -47.203 -74.538 h 15.069 c 13.991 0 21.794 -16.275 12.994 -27.172 L 163.264 6.082 c -6.336 -7.869 -19.65 -7.869 -25.987 0 L 56.495 106.248 c -8.8 10.897 -0.998 27.172 12.994 27.172 h 15.069 l -47.204 74.536 c -7.024 11.086 0.956 25.628 14.102 25.628 h 23.999 L 2.88 341.101 c -7.481 11.079 0.489 26.036 13.836 26.036 h 83.471 v 111.295 H 83.493 c -9.222 0 -16.694 7.472 -16.694 16.694 s 7.472 16.694 16.694 16.694 c 131.059 0 224.062 0 356.144 0 c 9.222 0 16.694 -7.472 16.694 -16.694 s -7.472 -16.694 -16.694 -16.694 h -27.935 V 367.137 h 83.583 C 508.633 367.137 516.602 352.181 509.122 341.101 z M 166.963 478.434 h -33.5 V 367.138 h 33.5 V 478.434 z M 378.424 478.434 h -33.5 V 367.138 h 33.5 V 478.434 z" stroke-linecap="round"/>
</g>
</svg>