<svg xmlns="http://www.w3.org/2000/svg" xmlns:xlink="http://www.w3.org/1999/xlink" version="1.1" width="1000" height="1000" viewBox="0 0 1000 1000" xml:space="preserve">
<desc>Created with Fabric.js 3.5.0</desc>
<defs>
</defs>
<rect x="0" y="0" width="100%" height="100%" fill="rgba(255,255,255,0)"/>
<g transform="matrix(1.2717 0 0 1.2717 508.68 508.68)" id="186284">
<g style="" vector-effect="non-scaling-stroke">
		<g transform="matrix(16 0 0 16 304 272)">
<circle style="stroke: none; stroke-width: 1; stroke-dasharray: none; stroke-linecap: butt; stroke-dashoffset: 0; stroke-linejoin: miter; stroke-miterlimit: 4; is-custom-font: none; font-file-url: none; fill: rgb(0,158,255); fill-rule: nonzero; opacity: 1;" cx="0" cy="0" r="4"/>
</g>
		<g transform="matrix(16 0 0 16 -160 272)">
<circle style="stroke: none; stroke-width: 1; stroke-dasharray: none; stroke-linecap: butt; stroke-dashoffset: 0; stroke-linejoin: miter; stroke-miterlimit: 4; is-custom-font: none; font-file-url: none; fill: rgb(0,158,255); fill-rule: nonzero; opacity: 1;" cx="0" cy="0" r="4"/>
</g>
		<g transform="matrix(16 0 0 16 -8 -56)">
<path style="stroke: none; stroke-width: 1; stroke-dasharray: none; stroke-linecap: butt; stroke-dashoffset: 0; stroke-linejoin: miter; stroke-miterlimit: 4; is-custom-font: none; font-file-url: none; fill: rgb(0,158,255); fill-rule: nonzero; opacity: 1;" transform=" translate(-24.5, -21.5)" d="M 47 33 h -31.229 l 0.667 -1.082 c 0.286 -0.464 0.37 -1.025 0.233 -1.553 l -0.651 -2.506 l 28.983 -1.506 c 1.099 -0.056 1.997 -1.003 1.997 -2.103 v -13.25 c 0 -1.1 -0.9 -2 -2 -2 h -33.881 l -0.391 -1.503 c -0.229 -0.882 -1.025 -1.497 -1.936 -1.497 h -6.792 c -1.104 0 -2 0.896 -2 2 s 0.896 2 2 2 h 5.246 l 5.34 20.545 l -2.1 3.405 c -0.38 0.617 -0.397 1.392 -0.043 2.024 c 0.352 0.633 1.02 1.026 1.745 1.026 h 34.812 c 1.104 0 2 -0.896 2 -2 s -0.896 -2 -2 -2 z" stroke-linecap="round"/>
</g>
</g>
</g>
</svg>