<svg xmlns="http://www.w3.org/2000/svg" xmlns:xlink="http://www.w3.org/1999/xlink" version="1.1" width="1000" height="1000" viewBox="0 0 1000 1000" xml:space="preserve">
<desc>Created with Fabric.js 3.5.0</desc>
<defs>
</defs>
<rect x="0" y="0" width="100%" height="100%" fill="rgba(255,255,255,0)"/>
<g transform="matrix(4.4775 0 0 7.9389 548.3259 393.1989)" id="661427">
<path style="stroke: none; stroke-width: 0; stroke-dasharray: none; stroke-linecap: butt; stroke-dashoffset: 0; stroke-linejoin: miter; stroke-miterlimit: 4; is-custom-font: none; font-file-url: none; fill: rgb(255,255,255); fill-rule: nonzero; opacity: 1;" vector-effect="non-scaling-stroke" transform=" translate(-43.5, -25)" d="M 2.5 2.5 H 84.5 V 47.5 H 2.5 V 2.5 Z" stroke-linecap="round"/>
</g>
<g transform="matrix(2.294 0 0 2.2081 281.7532 185.4792)" id="508384">
<path style="stroke: none; stroke-width: 0; stroke-dasharray: none; stroke-linecap: butt; stroke-dashoffset: 0; stroke-linejoin: miter; stroke-miterlimit: 4; is-custom-font: none; font-file-url: none; fill: rgb(255,255,255); fill-rule: nonzero; opacity: 1;" vector-effect="non-scaling-stroke" transform=" translate(-43.5, -25)" d="M 2.5 2.5 H 84.5 V 47.5 H 2.5 V 2.5 Z" stroke-linecap="round"/>
</g>
<g transform="matrix(2.3017 0 0 2.3017 719.5444 187.5853)" id="291665">
<path style="stroke: none; stroke-width: 0; stroke-dasharray: none; stroke-linecap: butt; stroke-dashoffset: 0; stroke-linejoin: miter; stroke-miterlimit: 4; is-custom-font: none; font-file-url: none; fill: rgb(255,255,255); fill-rule: nonzero; opacity: 1;" vector-effect="non-scaling-stroke" transform=" translate(-43.5, -25)" d="M 2.5 2.5 H 84.5 V 47.5 H 2.5 V 2.5 Z" stroke-linecap="round"/>
</g>
<g transform="matrix(1.9531 0 0 2.2321 500.4936 500.4904)" id="788259">
<path style="stroke: none; stroke-width: 1; stroke-dasharray: none; stroke-linecap: butt; stroke-dashoffset: 0; stroke-linejoin: miter; stroke-miterlimit: 4; is-custom-font: none; font-file-url: none; fill: rgb(0,158,255); fill-rule: nonzero; opacity: 1;" vector-effect="non-scaling-stroke" transform=" translate(-256, -256)" d="M 416 48 c 0 -8.84 -7.16 -16 -16 -16 h -64 c -8.84 0 -16 7.16 -16 16 v 48 h 96 V 48 z M 63.91 159.99 C 61.4 253.84 3.46 274.22 0 404 v 44 c 0 17.67 14.33 32 32 32 h 96 c 17.67 0 32 -14.33 32 -32 V 288 h 32 V 128 H 95.84 c -17.63 0 -31.45 14.37 -31.93 31.99 z m 384.18 0 c -0.48 -17.62 -14.3 -31.99 -31.93 -31.99 H 320 v 160 h 32 v 160 c 0 17.67 14.33 32 32 32 h 96 c 17.67 0 32 -14.33 32 -32 v -44 c -3.46 -129.78 -61.4 -150.16 -63.91 -244.01 z M 176 32 h -64 c -8.84 0 -16 7.16 -16 16 v 48 h 96 V 48 c 0 -8.84 -7.16 -16 -16 -16 z m 48 256 h 64 V 128 h -64 v 160 z" stroke-linecap="round"/>
</g>
</svg>