<svg xmlns="http://www.w3.org/2000/svg" xmlns:xlink="http://www.w3.org/1999/xlink" version="1.1" width="1000" height="1000" viewBox="0 0 1000 1000" xml:space="preserve">
<desc>Created with Fabric.js 3.5.0</desc>
<defs>
</defs>
<rect x="0" y="0" width="100%" height="100%" fill="rgba(255,255,255,0)"/>
<g transform="matrix(2.2263 0 0 2.2263 499.9977 499.998)" id="130050">
<path style="stroke: none; stroke-width: 1; stroke-dasharray: none; stroke-linecap: butt; stroke-dashoffset: 0; stroke-linejoin: miter; stroke-miterlimit: 4; is-custom-font: none; font-file-url: none; fill: rgb(0,0,0); fill-rule: nonzero; opacity: 1;" vector-effect="non-scaling-stroke" transform=" translate(-224, -256)" d="M 16 132 h 416 c 8.837 0 16 -7.163 16 -16 V 76 c 0 -8.837 -7.163 -16 -16 -16 H 16 C 7.163 60 0 67.163 0 76 v 40 c 0 8.837 7.163 16 16 16 z m 0 160 h 416 c 8.837 0 16 -7.163 16 -16 v -40 c 0 -8.837 -7.163 -16 -16 -16 H 16 c -8.837 0 -16 7.163 -16 16 v 40 c 0 8.837 7.163 16 16 16 z m 0 160 h 416 c 8.837 0 16 -7.163 16 -16 v -40 c 0 -8.837 -7.163 -16 -16 -16 H 16 c -8.837 0 -16 7.163 -16 16 v 40 c 0 8.837 7.163 16 16 16 z" stroke-linecap="round"/>
</g>
</svg>