<svg xmlns="http://www.w3.org/2000/svg" xmlns:xlink="http://www.w3.org/1999/xlink" version="1.1" width="1000" height="1000" viewBox="0 0 1000 1000" xml:space="preserve">
<desc>Created with Fabric.js 3.5.0</desc>
<defs>
</defs>
<rect x="0" y="0" width="100%" height="100%" fill="rgba(255,255,255,0)"/>
<g transform="matrix(41.4912 0 0 41.4912 499.9997 499.9998)" id="468707">
<path style="stroke: none; stroke-width: 1; stroke-dasharray: none; stroke-linecap: butt; stroke-dashoffset: 0; stroke-linejoin: miter; stroke-miterlimit: 4; is-custom-font: none; font-file-url: none; fill: rgb(0,0,0); fill-rule: evenodd; opacity: 1;" vector-effect="non-scaling-stroke" transform=" translate(-12, -12)" d="M 16 6 C 17.1046 6 18 5.10457 18 4 C 18 2.89543 17.1046 2 16 2 C 14.8954 2 14 2.89543 14 4 C 14 5.10457 14.8954 6 16 6 Z M 13.2428 5.52993 C 13.5738 5.61279 13.8397 5.85869 13.9482 6.18222 C 14.13 6.72461 14.3843 7.20048 14.697 7.59998 C 15.5586 8.70094 16.9495 9.32795 18.8356 9.01361 C 19.3804 8.92281 19.8956 9.29083 19.9864 9.8356 C 20.0772 10.3804 19.7092 10.8956 19.1644 10.9864 C 17.0282 11.3424 15.1791 10.7992 13.8435 9.60462 L 11.1291 11.9869 L 12.7524 13.8413 C 12.912 14.0236 13 14.2577 13 14.5 V 19 C 13 19.5523 12.5523 20 12 20 C 11.4477 20 11 19.5523 11 19 V 14.8759 L 8.9689 12.5556 L 8.92455 12.5059 C 8.68548 12.2386 8.28531 11.7911 8.11145 11.2626 C 8.00463 10.9379 7.97131 10.5628 8.08578 10.1667 C 8.1967 9.78279 8.42374 9.45733 8.7058 9.18044 L 8.71971 9.16705 L 12.3134 5.77299 C 12.5614 5.53871 12.9118 5.44708 13.2428 5.52993 Z M 2 17 C 2 15.3431 3.34315 14 5 14 C 6.65685 14 8 15.3431 8 17 C 8 18.6569 6.65685 20 5 20 C 3.34315 20 2 18.6569 2 17 Z M 5 12 C 2.23858 12 0 14.2386 0 17 C 0 19.7614 2.23858 22 5 22 C 7.76142 22 10 19.7614 10 17 C 10 14.2386 7.76142 12 5 12 Z M 16 17 C 16 15.3431 17.3431 14 19 14 C 20.6569 14 22 15.3431 22 17 C 22 18.6569 20.6569 20 19 20 C 17.3431 20 16 18.6569 16 17 Z M 19 12 C 16.2386 12 14 14.2386 14 17 C 14 19.7614 16.2386 22 19 22 C 21.7614 22 24 19.7614 24 17 C 24 14.2386 21.7614 12 19 12 Z" stroke-linecap="round"/>
</g>
</svg>