<svg xmlns="http://www.w3.org/2000/svg" xmlns:xlink="http://www.w3.org/1999/xlink" version="1.1" width="1000" height="1000" viewBox="0 0 1000 1000" xml:space="preserve">
<desc>Created with Fabric.js 3.5.0</desc>
<defs>
</defs>
<rect x="0" y="0" width="100%" height="100%" fill="rgba(255,255,255,0)"/>
<g transform="matrix(32.7869 0 0 32.789 500.5002 500.4995)" id="588294">
<path style="stroke: none; stroke-width: 1; stroke-dasharray: none; stroke-linecap: butt; stroke-dashoffset: 0; stroke-linejoin: miter; stroke-miterlimit: 4; is-custom-font: none; font-file-url: none; fill: rgb(0,0,0); fill-rule: nonzero; opacity: 1;" vector-effect="non-scaling-stroke" transform=" translate(-16, -15.999)" d="M 28 4.75 h -0.75 v -2.75 c 0 -0.69 -0.56 -1.25 -1.25 -1.25 s -1.25 0.56 -1.25 1.25 v 0 v 2.75 h -17.5 v -2.75 c 0 -0.69 -0.56 -1.25 -1.25 -1.25 s -1.25 0.56 -1.25 1.25 v 0 v 2.75 h -0.75 c -1.794 0.002 -3.248 1.456 -3.25 3.25 v 19.998 c 0.002 1.794 1.456 3.248 3.25 3.25 h 24 c 1.794 -0.001 3.249 -1.456 3.25 -3.25 v -19.998 c -0.002 -1.794 -1.456 -3.248 -3.25 -3.25 h 0 z M 4 7.25 h 24 c 0.414 0 0.75 0.336 0.75 0.75 v 2.75 h -25.5 v -2.75 c 0.001 -0.414 0.336 -0.749 0.75 -0.75 h 0 z M 28 28.748 h -24 c -0.414 0 -0.75 -0.336 -0.75 -0.75 v -14.748 h 25.5 v 14.748 c 0 0.414 -0.336 0.75 -0.75 0.75 v 0 z M 19.896 17.31 c -0.226 -0.226 -0.539 -0.366 -0.884 -0.366 s -0.658 0.14 -0.884 0.366 l -2.129 2.13 l -2.13 -2.13 c -0.226 -0.226 -0.539 -0.366 -0.884 -0.366 c -0.69 0 -1.25 0.559 -1.25 1.25 c 0 0.345 0.14 0.657 0.366 0.883 l 2.131 2.132 l -2.131 2.132 c -0.227 0.226 -0.368 0.539 -0.368 0.885 c 0 0.69 0.559 1.249 1.249 1.249 c 0.346 0 0.66 -0.141 0.886 -0.369 l 2.13 -2.13 l 2.129 2.13 c 0.226 0.227 0.539 0.367 0.885 0.367 c 0.69 0 1.25 -0.56 1.25 -1.25 c 0 -0.345 -0.14 -0.657 -0.365 -0.883 l -2.131 -2.132 l 2.131 -2.132 c 0.226 -0.226 0.365 -0.538 0.365 -0.882 s -0.14 -0.658 -0.367 -0.884 l 0 0 z" stroke-linecap="round"/>
</g>
</svg>