<svg xmlns="http://www.w3.org/2000/svg" xmlns:xlink="http://www.w3.org/1999/xlink" version="1.1" width="1000" height="1000" viewBox="0 0 1000 1000" xml:space="preserve">
<desc>Created with Fabric.js 3.5.0</desc>
<defs>
</defs>
<rect x="0" y="0" width="100%" height="100%" fill="rgba(255,255,255,0)"/>
<g transform="matrix(33.3333 0 0 33.3333 498.9997 498.9997)" id="4981">
<path style="stroke: none; stroke-width: 0; stroke-dasharray: none; stroke-linecap: round; stroke-dashoffset: 0; stroke-linejoin: round; stroke-miterlimit: 4; is-custom-font: none; font-file-url: none; fill: none; fill-rule: nonzero; opacity: 1;" vector-effect="non-scaling-stroke" transform=" translate(-12, -12)" d="M 9 10 L 15 16 M 15 10 L 9 16 M 7 3 V 5 M 17 3 V 5 M 6.2 21 H 17.8 C 18.9201 21 19.4802 21 19.908 20.782 C 20.2843 20.5903 20.5903 20.2843 20.782 19.908 C 21 19.4802 21 18.9201 21 17.8 V 8.2 C 21 7.07989 21 6.51984 20.782 6.09202 C 20.5903 5.71569 20.2843 5.40973 19.908 5.21799 C 19.4802 5 18.9201 5 17.8 5 H 6.2 C 5.0799 5 4.51984 5 4.09202 5.21799 C 3.71569 5.40973 3.40973 5.71569 3.21799 6.09202 C 3 6.51984 3 7.07989 3 8.2 V 17.8 C 3 18.9201 3 19.4802 3.21799 19.908 C 3.40973 20.2843 3.71569 20.5903 4.09202 20.782 C 4.51984 21 5.07989 21 6.2 21 Z" stroke-linecap="round"/>
</g>
<g transform="matrix(55.5556 0 0 55.5556 500.5004 500.5004)" id="664258">
<path style="stroke: none; stroke-width: 1; stroke-dasharray: none; stroke-linecap: butt; stroke-dashoffset: 0; stroke-linejoin: miter; stroke-miterlimit: 4; is-custom-font: none; font-file-url: none; fill: rgb(0,0,0); fill-rule: evenodd; opacity: 1;" vector-effect="non-scaling-stroke" transform=" translate(-12, -12)" d="M 5 4 C 5 3.44772 4.55228 3 4 3 C 3.44772 3 3 3.44772 3 4 V 6 V 18 C 3 19.6569 4.34315 21 6 21 H 18 C 19.6569 21 21 19.6569 21 18 V 6 V 4 C 21 3.44772 20.5523 3 20 3 C 19.4477 3 19 3.44772 19 4 V 5 H 17 V 4 C 17 3.44772 16.5523 3 16 3 C 15.4477 3 15 3.44772 15 4 V 5 H 13 V 4 C 13 3.44772 12.5523 3 12 3 C 11.4477 3 11 3.44772 11 4 V 5 H 9 V 4 C 9 3.44772 8.55228 3 8 3 C 7.44772 3 7 3.44772 7 4 V 5 H 5 V 4 Z M 16 7 H 19 V 18 C 19 18.5523 18.5523 19 18 19 H 6 C 5.44772 19 5 18.5523 5 18 V 7 H 8 H 12 H 16 Z M 16.7682 10.6402 C 17.1218 10.2159 17.0645 9.58534 16.6402 9.23178 C 16.2159 8.87821 15.5853 8.93554 15.2318 9.35982 L 10.9328 14.5186 L 8.70711 12.2929 C 8.31658 11.9024 7.68342 11.9024 7.29289 12.2929 C 6.90237 12.6834 6.90237 13.3166 7.29289 13.7071 L 10.2929 16.7071 C 10.4916 16.9058 10.7646 17.0117 11.0453 16.999 C 11.326 16.9862 11.5884 16.856 11.7682 16.6402 L 16.7682 10.6402 Z" stroke-linecap="round"/>
</g>
</svg>