<svg xmlns="http://www.w3.org/2000/svg" xmlns:xlink="http://www.w3.org/1999/xlink" version="1.1" width="1000" height="1000" viewBox="0 0 1000 1000" xml:space="preserve">
<desc>Created with Fabric.js 3.5.0</desc>
<defs>
</defs>
<rect x="0" y="0" width="100%" height="100%" fill="rgba(255,255,255,0)"/>
<g transform="matrix(33.3333 0 0 33.3333 498.9997 498.9997)" id="4981">
<path style="stroke: none; stroke-width: 0; stroke-dasharray: none; stroke-linecap: round; stroke-dashoffset: 0; stroke-linejoin: round; stroke-miterlimit: 4; is-custom-font: none; font-file-url: none; fill: none; fill-rule: nonzero; opacity: 1;" vector-effect="non-scaling-stroke" transform=" translate(-12, -12)" d="M 9 10 L 15 16 M 15 10 L 9 16 M 7 3 V 5 M 17 3 V 5 M 6.2 21 H 17.8 C 18.9201 21 19.4802 21 19.908 20.782 C 20.2843 20.5903 20.5903 20.2843 20.782 19.908 C 21 19.4802 21 18.9201 21 17.8 V 8.2 C 21 7.07989 21 6.51984 20.782 6.09202 C 20.5903 5.71569 20.2843 5.40973 19.908 5.21799 C 19.4802 5 18.9201 5 17.8 5 H 6.2 C 5.0799 5 4.51984 5 4.09202 5.21799 C 3.71569 5.40973 3.40973 5.71569 3.21799 6.09202 C 3 6.51984 3 7.07989 3 8.2 V 17.8 C 3 18.9201 3 19.4802 3.21799 19.908 C 3.40973 20.2843 3.71569 20.5903 4.09202 20.782 C 4.51984 21 5.07989 21 6.2 21 Z" stroke-linecap="round"/>
</g>
<g transform="matrix(1.4352 0 0 1.4352 500.0068 500.0068)" id="770974">
<g style="" vector-effect="non-scaling-stroke">
		<g transform="matrix(25 0 0 25 0 0)" id="icon">
<path style="stroke: none; stroke-width: 1; stroke-dasharray: none; stroke-linecap: butt; stroke-dashoffset: 0; stroke-linejoin: miter; stroke-miterlimit: 4; is-custom-font: none; font-file-url: none; fill: rgb(0,0,0); fill-rule: nonzero; opacity: 1;" transform=" translate(-16, -16)" d="M 30 15 H 27.9492 A 12.0071 12.0071 0 0 0 17 4.0508 V 2 H 15 V 4.0508 A 12.0071 12.0071 0 0 0 4.0508 15 H 2 v 2 H 4.0508 A 12.0071 12.0071 0 0 0 15 27.9492 V 30 h 2 V 27.9492 A 12.0071 12.0071 0 0 0 27.9492 17 H 30 Z M 17 25.9492 V 22 H 15 v 3.9492 A 10.0166 10.0166 0 0 1 6.0508 17 H 10 V 15 H 6.0508 A 10.0166 10.0166 0 0 1 15 6.0508 V 10 h 2 V 6.0508 A 10.0166 10.0166 0 0 1 25.9492 15 H 22 v 2 h 3.9492 A 10.0166 10.0166 0 0 1 17 25.9492 Z" stroke-linecap="round"/>
</g>
		<g transform="matrix(25 0 0 25 0 0)" id="_Transparent_Rectangle_">
<rect style="stroke: none; stroke-width: 1; stroke-dasharray: none; stroke-linecap: butt; stroke-dashoffset: 0; stroke-linejoin: miter; stroke-miterlimit: 4; is-custom-font: none; font-file-url: none; fill: none; fill-rule: nonzero; opacity: 1;" x="-16" y="-16" rx="0" ry="0" width="32" height="32"/>
</g>
</g>
</g>
</svg>