<svg xmlns="http://www.w3.org/2000/svg" xmlns:xlink="http://www.w3.org/1999/xlink" version="1.1" width="1000" height="1000" viewBox="0 0 1000 1000" xml:space="preserve">
<desc>Created with Fabric.js 3.5.0</desc>
<defs>
</defs>
<rect x="0" y="0" width="100%" height="100%" fill="rgba(255,255,255,0)"/>
<g transform="matrix(41.5838 0 0 41.5838 500.0002 499.4637)" id="619466">
<path style="stroke: none; stroke-width: 1; stroke-dasharray: none; stroke-linecap: butt; stroke-dashoffset: 0; stroke-linejoin: miter; stroke-miterlimit: 4; is-custom-font: none; font-file-url: none; fill: rgb(0,0,0); fill-rule: evenodd; opacity: 1;" vector-effect="non-scaling-stroke" transform=" translate(-532.9845, -1209.5038)" d="M 544.345 1213.39 L 534.615 1202.6 C 534.167 1202.15 533.57 1201.95 532.984 1201.99 C 532.398 1201.95 531.802 1202.15 531.354 1202.6 L 521.624 1213.39 C 520.797 1214.22 520.797 1215.57 521.624 1216.4 C 522.452 1217.23 523.793 1217.23 524.621 1216.4 L 532.984 1207.13 L 541.349 1216.4 C 542.176 1217.23 543.518 1217.23 544.345 1216.4 C 545.172 1215.57 545.172 1214.22 544.345 1213.39" stroke-linecap="round"/>
</g>
</svg>