<svg xmlns="http://www.w3.org/2000/svg" xmlns:xlink="http://www.w3.org/1999/xlink" version="1.1" width="1000" height="1000" viewBox="0 0 1000 1000" xml:space="preserve">
<desc>Created with Fabric.js 3.5.0</desc>
<defs>
</defs>
<rect x="0" y="0" width="100%" height="100%" fill="rgba(255,255,255,0)"/>
<g transform="matrix(41.5337 0 0 41.5337 500.0001 500.0001)" id="271578">
<path style="stroke: none; stroke-width: 1; stroke-dasharray: none; stroke-linecap: butt; stroke-dashoffset: 0; stroke-linejoin: miter; stroke-miterlimit: 4; is-custom-font: none; font-file-url: none; fill: rgb(0,0,0); fill-rule: evenodd; opacity: 1;" vector-effect="non-scaling-stroke" transform=" translate(-586.0155, -1208.5112)" d="M 597.405 1201.63 C 596.576 1200.8 595.23 1200.8 594.401 1201.63 L 586.016 1210.88 L 577.63 1201.63 C 576.801 1200.8 575.455 1200.8 574.626 1201.63 C 573.797 1202.46 573.797 1203.81 574.626 1204.64 L 584.381 1215.4 C 584.83 1215.85 585.429 1216.05 586.016 1216.01 C 586.603 1216.05 587.201 1215.85 587.65 1215.4 L 597.405 1204.64 C 598.234 1203.81 598.234 1202.46 597.405 1201.63" stroke-linecap="round"/>
</g>
</svg>