<svg xmlns="http://www.w3.org/2000/svg" xmlns:xlink="http://www.w3.org/1999/xlink" version="1.1" width="1000" height="1000" viewBox="0 0 1000 1000" xml:space="preserve">
<desc>Created with Fabric.js 3.5.0</desc>
<defs>
</defs>
<rect x="0" y="0" width="100%" height="100%" fill="rgba(255,255,255,0)"/>
<g transform="matrix(33.3333 0 0 33.3333 498.9997 498.9997)" id="4981">
<path style="stroke: none; stroke-width: 0; stroke-dasharray: none; stroke-linecap: round; stroke-dashoffset: 0; stroke-linejoin: round; stroke-miterlimit: 4; is-custom-font: none; font-file-url: none; fill: none; fill-rule: nonzero; opacity: 1;" vector-effect="non-scaling-stroke" transform=" translate(-12, -12)" d="M 9 10 L 15 16 M 15 10 L 9 16 M 7 3 V 5 M 17 3 V 5 M 6.2 21 H 17.8 C 18.9201 21 19.4802 21 19.908 20.782 C 20.2843 20.5903 20.5903 20.2843 20.782 19.908 C 21 19.4802 21 18.9201 21 17.8 V 8.2 C 21 7.07989 21 6.51984 20.782 6.09202 C 20.5903 5.71569 20.2843 5.40973 19.908 5.21799 C 19.4802 5 18.9201 5 17.8 5 H 6.2 C 5.0799 5 4.51984 5 4.09202 5.21799 C 3.71569 5.40973 3.40973 5.71569 3.21799 6.09202 C 3 6.51984 3 7.07989 3 8.2 V 17.8 C 3 18.9201 3 19.4802 3.21799 19.908 C 3.40973 20.2843 3.71569 20.5903 4.09202 20.782 C 4.51984 21 5.07989 21 6.2 21 Z" stroke-linecap="round"/>
</g>
<g transform="matrix(47.619 0 0 50 500.4995 500.5)" id="553705">
<path style="stroke: none; stroke-width: 1; stroke-dasharray: none; stroke-linecap: butt; stroke-dashoffset: 0; stroke-linejoin: miter; stroke-miterlimit: 4; is-custom-font: none; font-file-url: none; fill: rgb(0,0,0); fill-rule: evenodd; opacity: 1;" vector-effect="non-scaling-stroke" transform=" translate(-293.5, -330)" d="M 297.92575 332.227 L 294.9427 334.913 C 294.13315 335.641 292.86685 335.641 292.0573 334.913 L 289.07425 332.227 C 288.65215 331.848 288.6343 331.215 289.03225 330.813 L 289.03225 330.813 C 289.4302 330.412 290.09485 330.394 290.51695 330.773 L 291.5638 331.716 C 291.89875 332.018 292.45 331.792 292.45 331.353 L 292.45 326 C 292.45 325.448 292.9204 325 293.5 325 C 294.0796 325 294.55 325.448 294.55 326 L 294.55 331.353 C 294.55 331.792 295.10125 332.018 295.43515 331.716 L 296.48305 330.773 C 296.9041 330.394 297.56875 330.412 297.96775 330.813 L 297.96775 330.813 C 298.3657 331.215 298.3468 331.848 297.92575 332.227 M 300.85 338 L 286.15 338 C 285.5704 338 285.1 337.553 285.1 337 L 285.1 323 C 285.1 322.448 285.5704 322 286.15 322 L 300.85 322 C 301.4296 322 301.9 322.448 301.9 323 L 301.9 337 C 301.9 337.553 301.4296 338 300.85 338 M 283 322 L 283 338 C 283 339.105 283.93975 340 285.1 340 L 301.9 340 C 303.0592 340 304 339.105 304 338 L 304 322 C 304 320.896 303.0592 320 301.9 320 L 285.1 320 C 283.93975 320 283 320.896 283 322" stroke-linecap="round"/>
</g>
</svg>