<svg xmlns="http://www.w3.org/2000/svg" xmlns:xlink="http://www.w3.org/1999/xlink" version="1.1" width="1000" height="1000" viewBox="0 0 1000 1000" xml:space="preserve">
<desc>Created with Fabric.js 3.5.0</desc>
<defs>
</defs>
<rect x="0" y="0" width="100%" height="100%" fill="rgba(255,255,255,0)"/>
<g transform="matrix(1.25 0 0 1.25 500 500)" id="273200">
<g style="" vector-effect="non-scaling-stroke">
		<g transform="matrix(1.5625 0 0 1.5625 224.9328 -224.9329)" id="_x32_">
<polygon style="stroke: none; stroke-width: 1; stroke-dasharray: none; stroke-linecap: butt; stroke-dashoffset: 0; stroke-linejoin: miter; stroke-miterlimit: 4; is-custom-font: none; font-file-url: none; fill: rgb(0,0,0); fill-rule: nonzero; opacity: 1;" points="-54.462,-112.043 -5.45,-63.02 -112.034,43.564 -43.573,112.043 63.03,5.45 112.034,54.472 112.034,-112.043 "/>
</g>
		<g transform="matrix(1.5625 0 0 1.5625 -224.925 224.9328)" id="_x32_">
<polygon style="stroke: none; stroke-width: 1; stroke-dasharray: none; stroke-linecap: butt; stroke-dashoffset: 0; stroke-linejoin: miter; stroke-miterlimit: 4; is-custom-font: none; font-file-url: none; fill: rgb(0,0,0); fill-rule: nonzero; opacity: 1;" points="43.567,-112.043 -63.026,-5.45 -112.039,-54.463 -112.039,112.043 54.467,112.043 5.445,63.021 112.039,-43.582 "/>
</g>
		<g transform="matrix(1.5625 0 0 1.5625 224.9328 224.9328)" id="_x32_">
<polygon style="stroke: none; stroke-width: 1; stroke-dasharray: none; stroke-linecap: butt; stroke-dashoffset: 0; stroke-linejoin: miter; stroke-miterlimit: 4; is-custom-font: none; font-file-url: none; fill: rgb(0,0,0); fill-rule: nonzero; opacity: 1;" points="-43.573,-112.043 -112.034,-43.582 -5.45,63.021 -54.462,112.043 112.034,112.043 112.034,-54.472 63.02,-5.45 "/>
</g>
		<g transform="matrix(1.5625 0 0 1.5625 -224.925 -224.9329)" id="_x32_">
<polygon style="stroke: none; stroke-width: 1; stroke-dasharray: none; stroke-linecap: butt; stroke-dashoffset: 0; stroke-linejoin: miter; stroke-miterlimit: 4; is-custom-font: none; font-file-url: none; fill: rgb(0,0,0); fill-rule: nonzero; opacity: 1;" points="54.457,-112.043 -112.039,-112.043 -112.039,54.463 -63.026,5.45 43.567,112.043 112.039,43.564 5.453,-63.02 "/>
</g>
</g>
</g>
</svg>