<svg xmlns="http://www.w3.org/2000/svg" xmlns:xlink="http://www.w3.org/1999/xlink" version="1.1" width="1000" height="1000" viewBox="0 0 1000 1000" xml:space="preserve">
<desc>Created with Fabric.js 3.5.0</desc>
<defs>
</defs>
<rect x="0" y="0" width="100%" height="100%" fill="rgba(255,255,255,0)"/>
<g transform="matrix(1.25 0 0 1.25 500 500)" id="131370">
<g style="" vector-effect="non-scaling-stroke">
		<g transform="matrix(50 0 0 50 -174.9 -25)">
<path style="stroke: none; stroke-width: 1; stroke-dasharray: none; stroke-linecap: butt; stroke-dashoffset: 0; stroke-linejoin: miter; stroke-miterlimit: 4; is-custom-font: none; font-file-url: none; fill: rgb(0,0,0); fill-rule: nonzero; opacity: 1;" transform=" translate(-4.502, -7.5)" d="M 4.502 9 a 1.5 1.5 0 1 0 0 -3 a 1.5 1.5 0 0 0 0 3 z" stroke-linecap="round"/>
</g>
		<g transform="matrix(50 0 0 50 0.05 0)">
<path style="stroke: none; stroke-width: 1; stroke-dasharray: none; stroke-linecap: butt; stroke-dashoffset: 0; stroke-linejoin: miter; stroke-miterlimit: 4; is-custom-font: none; font-file-url: none; fill: rgb(0,0,0); fill-rule: nonzero; opacity: 1;" transform=" translate(-8.001, -8)" d="M 14.002 13 a 2 2 0 0 1 -2 2 h -10 a 2 2 0 0 1 -2 -2 V 5 A 2 2 0 0 1 2 3 a 2 2 0 0 1 2 -2 h 10 a 2 2 0 0 1 2 2 v 8 a 2 2 0 0 1 -1.998 2 z M 14 2 H 4 a 1 1 0 0 0 -1 1 h 9.002 a 2 2 0 0 1 2 2 v 7 A 1 1 0 0 0 15 11 V 3 a 1 1 0 0 0 -1 -1 z M 2.002 4 a 1 1 0 0 0 -1 1 v 8 l 2.646 -2.354 a 0.5 0.5 0 0 1 0.63 -0.062 l 2.66 1.773 l 3.71 -3.71 a 0.5 0.5 0 0 1 0.577 -0.094 l 1.777 1.947 V 5 a 1 1 0 0 0 -1 -1 h -10 z" stroke-linecap="round"/>
</g>
</g>
</g>
</svg>