<svg xmlns="http://www.w3.org/2000/svg" xmlns:xlink="http://www.w3.org/1999/xlink" version="1.1" width="1000" height="1000" viewBox="0 0 1000 1000" xml:space="preserve">
<desc>Created with Fabric.js 3.5.0</desc>
<defs>
</defs>
<rect x="0" y="0" width="100%" height="100%" fill="rgba(255,255,255,0)"/>
<g transform="matrix(45.4545 0 0 45.4545 499.9995 499.9995)" id="297088">
<path style="stroke: none; stroke-width: 1; stroke-dasharray: none; stroke-linecap: butt; stroke-dashoffset: 0; stroke-linejoin: miter; stroke-miterlimit: 4; is-custom-font: none; font-file-url: none; fill: rgb(0,0,0); fill-rule: evenodd; opacity: 1;" vector-effect="non-scaling-stroke" transform=" translate(-12, -12)" d="M 1 12 C 1 5.92487 5.92487 1 12 1 C 18.0751 1 23 5.92487 23 12 C 23 18.0751 18.0751 23 12 23 C 5.92487 23 1 18.0751 1 12 Z M 10.25 11 C 10.25 10.4477 10.6977 10 11.25 10 H 12.75 C 13.3023 10 13.75 10.4477 13.75 11 V 18 C 13.75 18.5523 13.3023 19 12.75 19 H 11.25 C 10.6977 19 10.25 18.5523 10.25 18 V 11 Z M 14 7 C 14 5.89543 13.1046 5 12 5 C 10.8954 5 10 5.89543 10 7 C 10 8.10457 10.8954 9 12 9 C 13.1046 9 14 8.10457 14 7 Z" stroke-linecap="round"/>
</g>
</svg>