<svg xmlns="http://www.w3.org/2000/svg" xmlns:xlink="http://www.w3.org/1999/xlink" version="1.1" width="1000" height="1000" viewBox="0 0 1000 1000" xml:space="preserve">
<desc>Created with Fabric.js 3.5.0</desc>
<defs>
</defs>
<rect x="0" y="0" width="100%" height="100%" fill="rgba(255,255,255,0)"/>
<g transform="matrix(1.9184 0 0 1.9184 518.5185 499.9828)" id="989474">
<g style="" vector-effect="non-scaling-stroke">
		<g transform="matrix(33.3333 0 0 33.3333 -9.9917 0.0262)">
<path style="stroke: rgb(0,0,0); stroke-width: 1.5; stroke-dasharray: none; stroke-linecap: round; stroke-dashoffset: 0; stroke-linejoin: round; stroke-miterlimit: 4; is-custom-font: none; font-file-url: none; fill: none; fill-rule: evenodd; opacity: 1;" transform=" translate(-11.7003, -12.0008)" d="M 6.39209 12 C 6.39257 9.40281 8.18171 7.16765 10.6654 6.66142 C 13.149 6.15518 15.6355 7.51885 16.6042 9.91847 C 17.5728 12.3181 16.7539 15.0854 14.6483 16.528 C 12.5426 17.9706 9.73656 17.6867 7.94624 15.85 C 6.95088 14.8288 6.39183 13.4439 6.39209 12 V 12 Z" stroke-linecap="round"/>
</g>
		<g transform="matrix(33.3333 0 0 33.3333 -9.995 0.0184)">
<path style="stroke: rgb(0,0,0); stroke-width: 1.5; stroke-dasharray: none; stroke-linecap: round; stroke-dashoffset: 0; stroke-linejoin: round; stroke-miterlimit: 4; is-custom-font: none; font-file-url: none; fill: none; fill-rule: evenodd; opacity: 1;" transform=" translate(-11.7002, -12.0006)" d="M 9.42535 12 C 9.42565 10.887 10.1925 9.92922 11.2568 9.71236 C 12.3212 9.4955 13.3867 10.08 13.8018 11.1084 C 14.2168 12.1367 13.8658 13.3226 12.9634 13.9407 C 12.0609 14.5589 10.8585 14.4372 10.0913 13.65 C 9.66473 13.2124 9.42519 12.6188 9.42535 12 V 12 Z" stroke-linecap="round"/>
</g>
		<g transform="matrix(33.3333 0 0 33.3333 -10.0003 -0.0003)">
<path style="stroke: none; stroke-width: 1; stroke-dasharray: none; stroke-linecap: butt; stroke-dashoffset: 0; stroke-linejoin: miter; stroke-miterlimit: 4; is-custom-font: none; font-file-url: none; fill: rgb(0,0,0); fill-rule: nonzero; opacity: 1;" transform=" translate(-11.7, -12)" d="M 17.0079 11.25 C 16.5937 11.25 16.2579 11.5858 16.2579 12 C 16.2579 12.4142 16.5937 12.75 17.0079 12.75 V 11.25 Z M 18.525 12.75 C 18.9392 12.75 19.275 12.4142 19.275 12 C 19.275 11.5858 18.9392 11.25 18.525 11.25 V 12.75 Z M 4.875 11.25 C 4.46079 11.25 4.125 11.5858 4.125 12 C 4.125 12.4142 4.46079 12.75 4.875 12.75 V 11.25 Z M 6.3921 12.75 C 6.80631 12.75 7.1421 12.4142 7.1421 12 C 7.1421 11.5858 6.80631 11.25 6.3921 11.25 V 12.75 Z M 10.95 6.556 C 10.95 6.97021 11.2858 7.306 11.7 7.306 C 12.1142 7.306 12.45 6.97021 12.45 6.556 H 10.95 Z M 12.45 5 C 12.45 4.58579 12.1142 4.25 11.7 4.25 C 11.2858 4.25 10.95 4.58579 10.95 5 H 12.45 Z M 10.95 19 C 10.95 19.4142 11.2858 19.75 11.7 19.75 C 12.1142 19.75 12.45 19.4142 12.45 19 H 10.95 Z M 12.45 17.444 C 12.45 17.0298 12.1142 16.694 11.7 16.694 C 11.2858 16.694 10.95 17.0298 10.95 17.444 H 12.45 Z M 17.0079 12.75 H 18.525 V 11.25 H 17.0079 V 12.75 Z M 4.875 12.75 H 6.3921 V 11.25 H 4.875 V 12.75 Z M 12.45 6.556 V 5 H 10.95 V 6.556 H 12.45 Z M 12.45 19 V 17.444 H 10.95 V 19 H 12.45 Z" stroke-linecap="round"/>
</g>
</g>
</g>
</svg>