<svg xmlns="http://www.w3.org/2000/svg" xmlns:xlink="http://www.w3.org/1999/xlink" version="1.1" width="1000" height="1000" viewBox="0 0 1000 1000" xml:space="preserve">
<desc>Created with Fabric.js 3.5.0</desc>
<defs>
</defs>
<rect x="0" y="0" width="100%" height="100%" fill="rgba(255,255,255,0)"/>
<g transform="matrix(49.8506 0 0 49.8506 500.0001 500.0001)" id="729498">
<path style="stroke: none; stroke-width: 1; stroke-dasharray: none; stroke-linecap: butt; stroke-dashoffset: 0; stroke-linejoin: miter; stroke-miterlimit: 4; is-custom-font: none; font-file-url: none; fill: rgb(0,0,0); fill-rule: evenodd; opacity: 1;" vector-effect="non-scaling-stroke" transform=" translate(-214, -4929.0002)" d="M 214 4931.00046 C 214.552 4931.00046 215 4931.44846 215 4932.00046 C 215 4932.55246 214.552 4933.00046 214 4933.00046 C 213.448 4933.00046 213 4932.55246 213 4932.00046 C 213 4931.44846 213.448 4931.00046 214 4931.00046 L 214 4931.00046 Z M 214 4935.00046 C 215.654 4935.00046 217 4933.65446 217 4932.00046 C 217 4930.34646 215.654 4929.00046 214 4929.00046 C 212.346 4929.00046 211 4930.34646 211 4932.00046 C 211 4933.65446 212.346 4935.00046 214 4935.00046 L 214 4935.00046 Z M 219 4936.00046 C 219 4936.55246 218.552 4937.00046 218 4937.00046 L 210 4937.00046 C 209.448 4937.00046 209 4936.55246 209 4936.00046 L 209 4928.00046 C 209 4927.44846 209.448 4927.00046 210 4927.00046 L 218 4927.00046 C 218.552 4927.00046 219 4927.44846 219 4928.00046 L 219 4936.00046 Z M 212 4923.00046 C 212 4921.89746 212.897 4921.00046 214 4921.00046 C 215.103 4921.00046 216 4922.00046 216 4923.00046 L 216 4925.00046 L 212 4925.00046 L 212 4923.00046 Z M 218 4925.00046 L 218 4923.00046 C 218 4920.75346 215.739 4918.50546 213.164 4919.09546 C 211.266 4919.53046 210 4921.34146 210 4923.28846 L 210 4925.00046 L 209 4925.00046 C 207.895 4925.00046 207 4925.89546 207 4927.00046 L 207 4937.00046 C 207 4938.10546 207.895 4939.00046 209 4939.00046 L 219 4939.00046 C 220.105 4939.00046 221 4938.10546 221 4937.00046 L 221 4927.00046 C 221 4925.89546 220.105 4925.00046 219 4925.00046 L 218 4925.00046 Z" stroke-linecap="round"/>
</g>
</svg>