<svg xmlns="http://www.w3.org/2000/svg" xmlns:xlink="http://www.w3.org/1999/xlink" version="1.1" width="1000" height="1000" viewBox="0 0 1000 1000" xml:space="preserve">
<desc>Created with Fabric.js 3.5.0</desc>
<defs>
</defs>
<rect x="0" y="0" width="100%" height="100%" fill="rgba(255,255,255,0)"/>
<g transform="matrix(1.25 0 0 1.25 500 500)" id="271083">
<g style="" vector-effect="non-scaling-stroke">
		<g transform="matrix(2 0 0 2 0.008 -16.363)" id="Capa_1">
<path style="stroke: none; stroke-width: 1; stroke-dasharray: none; stroke-linecap: butt; stroke-dashoffset: 0; stroke-linejoin: miter; stroke-miterlimit: 4; is-custom-font: none; font-file-url: none; fill: rgb(0,0,0); fill-rule: nonzero; opacity: 1;" transform=" translate(-200.004, -191.8185)" d="M 261.543 166.668 h -0.524 v -27.582 c 0 -29.719 -24.179 -53.898 -53.896 -53.898 h -14.239 c -29.721 0 -53.899 24.18 -53.899 53.898 v 27.582 h -0.524 c -8.687 0 -15.73 7.047 -15.73 15.734 v 100.313 c 0 8.689 7.044 15.734 15.73 15.734 h 123.086 c 8.688 0 15.73 -7.045 15.73 -15.734 V 182.402 C 277.273 173.715 270.229 166.668 261.543 166.668 z M 215.73 246.475 c 0 8.688 -7.043 15.73 -15.73 15.73 c -8.688 0 -15.73 -7.043 -15.73 -15.73 v -19.664 c 0 -8.688 7.042 -15.729 15.73 -15.729 c 8.688 0 15.73 7.043 15.73 15.729 V 246.475 z M 230.219 166.668 h -60.438 v -27.582 c 0 -12.737 10.362 -23.098 23.1 -23.098 h 14.239 c 12.735 0 23.099 10.36 23.099 23.098 V 166.668 L 230.219 166.668 z" stroke-linecap="round"/>
</g>
		<g transform="matrix(2 0 0 2 0 0)" id="Capa_1">
<path style="stroke: none; stroke-width: 1; stroke-dasharray: none; stroke-linecap: butt; stroke-dashoffset: 0; stroke-linejoin: miter; stroke-miterlimit: 4; is-custom-font: none; font-file-url: none; fill: rgb(0,0,0); fill-rule: nonzero; opacity: 1;" transform=" translate(-200, -200)" d="M 352.987 328.874 l 1.75 -2.132 C 384.348 290.73 400 246.902 400 200 c 0 -47.661 -16.123 -92.051 -46.63 -128.368 l -1.699 -2.021 l 0.917 -2.479 c 1.655 -4.473 2.494 -9.182 2.494 -13.986 c 0 -22.245 -18.097 -40.342 -40.34 -40.342 c -8.121 0 -15.95 2.406 -22.644 6.951 l -2.179 1.481 l -2.369 -1.153 C 260.23 6.756 230.773 0 200 0 c -31.787 0 -62.099 7.176 -90.095 21.331 l -2.526 1.276 l -2.26 -1.702 c -7.035 -5.3 -15.419 -8.104 -24.247 -8.104 c -22.243 0 -40.338 18.097 -40.338 40.342 c 0 5.989 1.288 11.762 3.829 17.157 l 1.209 2.569 l -1.777 2.215 C 15.145 110.766 0 153.964 0 200 c 0 46.902 15.652 90.73 45.262 126.742 l 1.75 2.132 l -1.081 2.537 c -2.128 4.999 -3.208 10.311 -3.208 15.787 c 0 22.241 18.097 40.338 40.34 40.338 c 8.577 0 16.771 -2.665 23.7 -7.705 l 2.224 -1.616 l 2.466 1.219 C 139.045 393.08 168.837 400 200 400 s 60.955 -6.92 88.546 -20.566 l 2.466 -1.219 l 2.226 1.616 c 6.928 5.04 15.123 7.705 23.698 7.705 c 22.243 0 40.342 -18.097 40.342 -40.338 c 0 -5.479 -1.08 -10.788 -3.208 -15.787 L 352.987 328.874 z M 335.038 307.572 l -1.998 2.502 l -3.028 -1.035 c -4.221 -1.446 -8.621 -2.184 -13.077 -2.184 c -22.241 0 -40.34 18.098 -40.34 40.343 c 0 1.385 0.073 2.788 0.214 4.171 l 0.328 3.184 l -2.89 1.383 c -23.311 11.145 -48.29 16.791 -74.248 16.791 s -50.939 -5.646 -74.248 -16.791 l -2.89 -1.383 l 0.329 -3.184 c 0.141 -1.383 0.214 -2.786 0.214 -4.171 c 0 -22.245 -18.097 -40.343 -40.34 -40.343 c -4.456 0 -8.855 0.735 -13.077 2.184 l -3.028 1.035 l -1.998 -2.502 C 40.305 276.685 27.273 239.484 27.273 200 c 0 -39.093 12.793 -75.996 36.996 -106.714 l 1.92 -2.438 l 2.969 0.899 c 3.796 1.151 7.737 1.734 11.714 1.734 c 22.243 0 40.34 -18.097 40.34 -40.338 c 0 -1.104 -0.053 -2.265 -0.166 -3.541 l -0.267 -3.089 l 2.778 -1.378 c 23.921 -11.853 49.64 -17.863 76.442 -17.863 c 25.153 0 49.433 5.323 72.166 15.818 l 3.04 1.402 l -0.438 3.318 c -0.239 1.821 -0.361 3.614 -0.361 5.332 c 0 22.241 18.097 40.338 40.339 40.338 c 5.085 0 10.059 -0.945 14.785 -2.808 l 3.115 -1.23 l 2.097 2.611 c 24.497 30.519 37.985 68.854 37.985 107.944 C 372.727 239.484 359.695 276.686 335.038 307.572 z" stroke-linecap="round"/>
</g>
</g>
</g>
</svg>