<svg xmlns="http://www.w3.org/2000/svg" xmlns:xlink="http://www.w3.org/1999/xlink" version="1.1" width="1000" height="1000" viewBox="0 0 1000 1000" xml:space="preserve">
<desc>Created with Fabric.js 3.5.0</desc>
<defs>
</defs>
<rect x="0" y="0" width="100%" height="100%" fill="rgba(255,255,255,0)"/>
<g transform="matrix(1.2483 0 0 1.2483 499.5517 500.0151)" id="472728">
<g style="" vector-effect="non-scaling-stroke">
		<g transform="matrix(1.5625 0 0 1.5625 0.0015 -118.5435)" id="_x32_">
<path style="stroke: none; stroke-width: 1; stroke-dasharray: none; stroke-linecap: butt; stroke-dashoffset: 0; stroke-linejoin: miter; stroke-miterlimit: 4; is-custom-font: none; font-file-url: none; fill: rgb(0,0,0); fill-rule: nonzero; opacity: 1;" transform=" translate(-256.001, -180.1321)" d="M 396.138 85.295 c -13.172 -25.037 -33.795 -45.898 -59.342 -61.03 C 311.26 9.2 280.435 0.001 246.98 0.001 c -41.238 -0.102 -75.5 10.642 -101.359 25.521 c -25.962 14.826 -37.156 32.088 -37.156 32.088 c -4.363 3.786 -6.824 9.294 -6.721 15.056 c 0.118 5.77 2.775 11.186 7.273 14.784 l 35.933 28.78 c 7.324 5.864 17.806 5.644 24.875 -0.518 c 0 0 4.414 -7.978 18.247 -15.88 c 13.91 -7.85 31.945 -14.173 58.908 -14.258 c 23.517 -0.051 44.022 8.725 58.016 20.717 c 6.952 5.941 12.145 12.594 15.328 18.68 c 3.208 6.136 4.379 11.5 4.363 15.574 c -0.068 13.766 -2.742 22.77 -6.603 30.442 c -2.945 5.729 -6.789 10.813 -11.738 15.744 c -7.384 7.384 -17.398 14.207 -28.634 20.479 c -11.245 6.348 -23.365 11.932 -35.612 18.68 c -13.978 7.74 -28.77 18.858 -39.701 35.544 c -5.449 8.249 -9.71 17.686 -12.416 27.641 c -2.742 9.964 -3.98 20.412 -3.98 31.071 c 0 11.372 0 20.708 0 20.708 c 0 10.719 8.69 19.41 19.41 19.41 h 46.762 c 10.719 0 19.41 -8.691 19.41 -19.41 c 0 0 0 -9.336 0 -20.708 c 0 -4.107 0.467 -6.755 0.917 -8.436 c 0.773 -2.512 1.206 -3.14 2.47 -4.668 c 1.29 -1.452 3.895 -3.674 8.698 -6.331 c 7.019 -3.946 18.298 -9.276 31.07 -16.176 c 19.121 -10.456 42.367 -24.646 61.972 -48.062 c 9.752 -11.686 18.374 -25.758 24.323 -41.968 c 6.001 -16.21 9.242 -34.431 9.226 -53.96 C 410.243 120.761 404.879 101.971 396.138 85.295 z" stroke-linecap="round"/>
</g>
		<g transform="matrix(1.5625 0 0 1.5625 -42.5054 317.5313)" id="_x32_">
<path style="stroke: none; stroke-width: 1; stroke-dasharray: none; stroke-linecap: butt; stroke-dashoffset: 0; stroke-linejoin: miter; stroke-miterlimit: 4; is-custom-font: none; font-file-url: none; fill: rgb(0,0,0); fill-rule: nonzero; opacity: 1;" transform=" translate(-228.7965, -459.22)" d="M 228.809 406.44 c -29.152 0 -52.788 23.644 -52.788 52.788 c 0 29.136 23.637 52.772 52.788 52.772 c 29.136 0 52.763 -23.636 52.763 -52.772 C 281.572 430.084 257.945 406.44 228.809 406.44 z" stroke-linecap="round"/>
</g>
</g>
</g>
</svg>