<svg xmlns="http://www.w3.org/2000/svg" xmlns:xlink="http://www.w3.org/1999/xlink" version="1.1" width="1000" height="1000" viewBox="0 0 1000 1000" xml:space="preserve">
<desc>Created with Fabric.js 3.5.0</desc>
<defs>
</defs>
<rect x="0" y="0" width="100%" height="100%" fill="rgba(255,255,255,0)"/>
<g transform="matrix(33.3333 0 0 33.3333 498.9997 498.9997)" id="114365">
<path style="stroke: none; stroke-width: 0; stroke-dasharray: none; stroke-linecap: round; stroke-dashoffset: 0; stroke-linejoin: round; stroke-miterlimit: 4; is-custom-font: none; font-file-url: none; fill: none; fill-rule: nonzero; opacity: 1;" vector-effect="non-scaling-stroke" transform=" translate(-12, -12)" d="M 9 10 L 15 16 M 15 10 L 9 16 M 7 3 V 5 M 17 3 V 5 M 6.2 21 H 17.8 C 18.9201 21 19.4802 21 19.908 20.782 C 20.2843 20.5903 20.5903 20.2843 20.782 19.908 C 21 19.4802 21 18.9201 21 17.8 V 8.2 C 21 7.07989 21 6.51984 20.782 6.09202 C 20.5903 5.71569 20.2843 5.40973 19.908 5.21799 C 19.4802 5 18.9201 5 17.8 5 H 6.2 C 5.0799 5 4.51984 5 4.09202 5.21799 C 3.71569 5.40973 3.40973 5.71569 3.21799 6.09202 C 3 6.51984 3 7.07989 3 8.2 V 17.8 C 3 18.9201 3 19.4802 3.21799 19.908 C 3.40973 20.2843 3.71569 20.5903 4.09202 20.782 C 4.51984 21 5.07989 21 6.2 21 Z" stroke-linecap="round"/>
</g>
<g transform="matrix(0 1.25 -1.25 0 500 500)" id="389680">
<g style="" vector-effect="non-scaling-stroke">
		<g transform="matrix(23.7023 0 0 23.7023 -0.0237 0.0001)">
<path style="stroke: none; stroke-width: 1; stroke-dasharray: none; stroke-linecap: butt; stroke-dashoffset: 0; stroke-linejoin: miter; stroke-miterlimit: 4; is-custom-font: none; font-file-url: none; fill: rgb(0,0,0); fill-rule: nonzero; opacity: 1;" transform=" translate(-496.623, -530.061)" d="M 502.465 546.937 H 490.781 a 2.035 2.035 0 0 1 -2.033 -2.032 V 515.218 a 2.035 2.035 0 0 1 2.033 -2.033 h 11.684 a 2.035 2.035 0 0 1 2.033 2.033 v 29.687 A 2.035 2.035 0 0 1 502.465 546.937 Z m -11.684 -31.752 l -0.033 29.72 l 11.717 0.032 l 0.033 -29.719 a 0.032 0.032 0 0 0 -0.033 -0.033 Z" stroke-linecap="round"/>
</g>
		<g transform="matrix(23.7023 0 0 23.7023 -94.7855 -285.8734)">
<path style="stroke: none; stroke-width: 1; stroke-dasharray: none; stroke-linecap: butt; stroke-dashoffset: 0; stroke-linejoin: miter; stroke-miterlimit: 4; is-custom-font: none; font-file-url: none; fill: rgb(0,0,0); fill-rule: nonzero; opacity: 1;" transform=" translate(-492.625, -518)" d="M 495.5 519 h -5.75 a 1 1 0 1 1 0 -2 h 5.75 a 1 1 0 0 1 0 2 Z" stroke-linecap="round"/>
</g>
		<g transform="matrix(23.7023 0 0 23.7023 -117.8005 -191.0643)">
<path style="stroke: none; stroke-width: 1; stroke-dasharray: none; stroke-linecap: butt; stroke-dashoffset: 0; stroke-linejoin: miter; stroke-miterlimit: 4; is-custom-font: none; font-file-url: none; fill: rgb(0,0,0); fill-rule: nonzero; opacity: 1;" transform=" translate(-491.654, -522)" d="M 493.56 523 h -3.812 a 1 1 0 1 1 0 -2 h 3.812 a 1 1 0 0 1 0 2 Z" stroke-linecap="round"/>
</g>
		<g transform="matrix(23.7023 0 0 23.7023 -117.8005 -94.7854)">
<path style="stroke: none; stroke-width: 1; stroke-dasharray: none; stroke-linecap: butt; stroke-dashoffset: 0; stroke-linejoin: miter; stroke-miterlimit: 4; is-custom-font: none; font-file-url: none; fill: rgb(0,0,0); fill-rule: nonzero; opacity: 1;" transform=" translate(-491.654, -526.062)" d="M 493.56 527.062 h -3.812 a 1 1 0 1 1 0 -2 h 3.812 a 1 1 0 0 1 0 2 Z" stroke-linecap="round"/>
</g>
		<g transform="matrix(23.7023 0 0 23.7023 -94.7855 -1.4459)">
<path style="stroke: none; stroke-width: 1; stroke-dasharray: none; stroke-linecap: butt; stroke-dashoffset: 0; stroke-linejoin: miter; stroke-miterlimit: 4; is-custom-font: none; font-file-url: none; fill: rgb(0,0,0); fill-rule: nonzero; opacity: 1;" transform=" translate(-492.625, -530)" d="M 495.5 531 h -5.75 a 1 1 0 1 1 0 -2 h 5.75 a 1 1 0 0 1 0 2 Z" stroke-linecap="round"/>
</g>
		<g transform="matrix(23.7023 0 0 23.7023 -117.8005 90.4005)">
<path style="stroke: none; stroke-width: 1; stroke-dasharray: none; stroke-linecap: butt; stroke-dashoffset: 0; stroke-linejoin: miter; stroke-miterlimit: 4; is-custom-font: none; font-file-url: none; fill: rgb(0,0,0); fill-rule: nonzero; opacity: 1;" transform=" translate(-491.654, -533.875)" d="M 493.56 534.875 h -3.812 a 1 1 0 1 1 0 -2 h 3.812 a 1 1 0 0 1 0 2 Z" stroke-linecap="round"/>
</g>
		<g transform="matrix(23.7023 0 0 23.7023 -117.8005 186.6793)">
<path style="stroke: none; stroke-width: 1; stroke-dasharray: none; stroke-linecap: butt; stroke-dashoffset: 0; stroke-linejoin: miter; stroke-miterlimit: 4; is-custom-font: none; font-file-url: none; fill: rgb(0,0,0); fill-rule: nonzero; opacity: 1;" transform=" translate(-491.654, -537.937)" d="M 493.56 538.937 h -3.812 a 1 1 0 1 1 0 -2 h 3.812 a 1 1 0 0 1 0 2 Z" stroke-linecap="round"/>
</g>
		<g transform="matrix(23.7023 0 0 23.7023 -94.7855 282.9818)">
<path style="stroke: none; stroke-width: 1; stroke-dasharray: none; stroke-linecap: butt; stroke-dashoffset: 0; stroke-linejoin: miter; stroke-miterlimit: 4; is-custom-font: none; font-file-url: none; fill: rgb(0,0,0); fill-rule: nonzero; opacity: 1;" transform=" translate(-492.625, -542)" d="M 495.5 543 h -5.75 a 1 1 0 1 1 0 -2 h 5.75 a 1 1 0 0 1 0 2 Z" stroke-linecap="round"/>
</g>
</g>
</g>
</svg>