<svg xmlns="http://www.w3.org/2000/svg" xmlns:xlink="http://www.w3.org/1999/xlink" version="1.1" width="1000" height="1000" viewBox="0 0 1000 1000" xml:space="preserve">
<desc>Created with Fabric.js 3.5.0</desc>
<defs>
</defs>
<rect x="0" y="0" width="100%" height="100%" fill="rgba(255,255,255,0)"/>
<g transform="matrix(1.9531 0 0 1.9531 500.4936 500.4936)" id="851639">
<path style="stroke: none; stroke-width: 1; stroke-dasharray: none; stroke-linecap: butt; stroke-dashoffset: 0; stroke-linejoin: miter; stroke-miterlimit: 4; is-custom-font: none; font-file-url: none; fill: rgb(255,255,255); fill-rule: nonzero; opacity: 1;" vector-effect="non-scaling-stroke" transform=" translate(-256, -256)" d="M 304 48 c 0 26.51 -21.49 48 -48 48 s -48 -21.49 -48 -48 s 21.49 -48 48 -48 s 48 21.49 48 48 z m -48 368 c -26.51 0 -48 21.49 -48 48 s 21.49 48 48 48 s 48 -21.49 48 -48 s -21.49 -48 -48 -48 z m 208 -208 c -26.51 0 -48 21.49 -48 48 s 21.49 48 48 48 s 48 -21.49 48 -48 s -21.49 -48 -48 -48 z M 96 256 c 0 -26.51 -21.49 -48 -48 -48 S 0 229.49 0 256 s 21.49 48 48 48 s 48 -21.49 48 -48 z m 12.922 99.078 c -26.51 0 -48 21.49 -48 48 s 21.49 48 48 48 s 48 -21.49 48 -48 c 0 -26.509 -21.491 -48 -48 -48 z m 294.156 0 c -26.51 0 -48 21.49 -48 48 s 21.49 48 48 48 s 48 -21.49 48 -48 c 0 -26.509 -21.49 -48 -48 -48 z M 108.922 60.922 c -26.51 0 -48 21.49 -48 48 s 21.49 48 48 48 s 48 -21.49 48 -48 s -21.491 -48 -48 -48 z" stroke-linecap="round"/>
</g>
</svg>