<svg xmlns="http://www.w3.org/2000/svg" xmlns:xlink="http://www.w3.org/1999/xlink" version="1.1" width="1000" height="1000" viewBox="0 0 1000 1000" xml:space="preserve">
<desc>Created with Fabric.js 3.5.0</desc>
<defs>
</defs>
<rect x="0" y="0" width="100%" height="100%" fill="rgba(255,255,255,0)"/>
<g transform="matrix(49.7147 0 0 49.7147 500 500)" id="928866">
<path style="stroke: none; stroke-width: 1; stroke-dasharray: none; stroke-linecap: butt; stroke-dashoffset: 0; stroke-linejoin: miter; stroke-miterlimit: 4; is-custom-font: none; font-file-url: none; fill: rgb(0,0,0); fill-rule: evenodd; opacity: 1;" vector-effect="non-scaling-stroke" transform=" translate(-174, -4929.0001)" d="M 174 4931.00012 C 174.552 4931.00012 175 4931.44812 175 4932.00012 C 175 4932.55212 174.552 4933.00012 174 4933.00012 C 173.448 4933.00012 173 4932.55212 173 4932.00012 C 173 4931.44812 173.448 4931.00012 174 4931.00012 L 174 4931.00012 Z M 174 4935.00012 C 175.654 4935.00012 177 4933.65412 177 4932.00012 C 177 4930.34612 175.654 4929.00012 174 4929.00012 C 172.346 4929.00012 171 4930.34612 171 4932.00012 C 171 4933.65412 172.346 4935.00012 174 4935.00012 L 174 4935.00012 Z M 179 4936.00012 C 179 4936.55212 178.552 4937.00012 178 4937.00012 L 170 4937.00012 C 169.448 4937.00012 169 4936.55212 169 4936.00012 L 169 4928.00012 C 169 4927.44812 169.448 4927.00012 170 4927.00012 L 178 4927.00012 C 178.552 4927.00012 179 4927.44812 179 4928.00012 L 179 4936.00012 Z M 172 4925.00012 L 172 4923.13212 C 172 4922.33412 172.417 4921.56112 173.133 4921.20912 C 174.353 4920.60912 175.54 4921.39112 175.894 4922.39712 C 176.026 4922.77212 176.408 4923.00012 176.805 4923.00012 C 177.485 4923.00012 177.993 4922.32212 177.749 4921.68712 C 177.052 4919.86812 174.995 4918.45712 172.78 4919.20412 C 171.072 4919.78012 170 4921.48612 170 4923.28812 L 170 4925.00012 C 168.343 4925.00012 167 4926.34312 167 4928.00012 L 167 4936.00012 C 167 4937.65712 168.343 4939.00012 170 4939.00012 L 178 4939.00012 C 179.657 4939.00012 181 4937.65712 181 4936.00012 L 181 4928.00012 C 181 4926.34312 179.657 4925.00012 178 4925.00012 L 172 4925.00012 Z" stroke-linecap="round"/>
</g>
</svg>