<svg xmlns="http://www.w3.org/2000/svg" xmlns:xlink="http://www.w3.org/1999/xlink" version="1.1" width="1000" height="1000" viewBox="0 0 1000 1000" xml:space="preserve">
<desc>Created with Fabric.js 3.5.0</desc>
<defs>
</defs>
<rect x="0" y="0" width="100%" height="100%" fill="rgba(255,255,255,0)"/>
<g transform="matrix(-47.619 0 0 -50 500.5005 500.5)" id="687936">
<path style="stroke: none; stroke-width: 1; stroke-dasharray: none; stroke-linecap: butt; stroke-dashoffset: 0; stroke-linejoin: miter; stroke-miterlimit: 4; is-custom-font: none; font-file-url: none; fill: rgb(0,0,0); fill-rule: evenodd; opacity: 1;" vector-effect="non-scaling-stroke" transform=" translate(-293.5, -330)" d="M 297.92575 332.227 L 294.9427 334.913 C 294.13315 335.641 292.86685 335.641 292.0573 334.913 L 289.07425 332.227 C 288.65215 331.848 288.6343 331.215 289.03225 330.813 L 289.03225 330.813 C 289.4302 330.412 290.09485 330.394 290.51695 330.773 L 291.5638 331.716 C 291.89875 332.018 292.45 331.792 292.45 331.353 L 292.45 326 C 292.45 325.448 292.9204 325 293.5 325 C 294.0796 325 294.55 325.448 294.55 326 L 294.55 331.353 C 294.55 331.792 295.10125 332.018 295.43515 331.716 L 296.48305 330.773 C 296.9041 330.394 297.56875 330.412 297.96775 330.813 L 297.96775 330.813 C 298.3657 331.215 298.3468 331.848 297.92575 332.227 M 300.85 338 L 286.15 338 C 285.5704 338 285.1 337.553 285.1 337 L 285.1 323 C 285.1 322.448 285.5704 322 286.15 322 L 300.85 322 C 301.4296 322 301.9 322.448 301.9 323 L 301.9 337 C 301.9 337.553 301.4296 338 300.85 338 M 283 322 L 283 338 C 283 339.105 283.93975 340 285.1 340 L 301.9 340 C 303.0592 340 304 339.105 304 338 L 304 322 C 304 320.896 303.0592 320 301.9 320 L 285.1 320 C 283.93975 320 283 320.896 283 322" stroke-linecap="round"/>
</g>
</svg>